<?xml version="1.0" encoding="UTF-8"?>
<svg id="Layer_1_Image" data-name="Layer 1 Image" xmlns="http://www.w3.org/2000/svg" viewBox="0 0 123 122">
  <defs>
    <style>
      .cls-1 {
        fill: #fff;
      }
    </style>
  </defs>
  <path class="cls-1" d="M60.66,0c-11.21.95-21.08,6.64-26.4,16.88-.98-.48-2.01-1.05-3.08-1.15-4.25-.38-7.85,2.79-8.29,6.87s2.31,7.74,6.68,8.55c-4.13.74-7.05,4.28-6.7,8.36s3.97,7.43,8.31,7.06c1.08-.09,2.08-.66,3.08-1.14,5.42,10.32,15.93,16.66,27.47,16.63,11.52-.03,21.94-6.42,27.33-16.67,1.02.58,1.98,1.09,3.02,1.18,4.25.38,7.85-2.77,8.31-6.82.46-4.08-2.3-7.78-6.68-8.59,4.13-.73,7.06-4.27,6.7-8.37s-4-7.44-8.34-7.04c-1.06.1-2.08.66-3.04,1.16C83.73,6.72,73.96,1.05,62.82,0h60.18v106.27c-11.4-18.83-31.02-28.84-52.1-30.77l6.29,40.51h-31.01s6.29-40.5,6.29-40.5c-7.5.68-14.66,2.35-21.66,5.17-7.54,3.04-14.31,7.29-20.3,12.99-4.01,3.77-7.38,7.98-10.13,12.73,2.4,8.85,9.31,14.39,17.91,15.6l86.77-.25c8.71-.02,15.26-6.97,17.94-14.99v15.23H0V0h60.66Z"/>
  <path d="M63.32,0c11.13,1.05,20.89,6.74,26.18,16.96.96-.51,1.98-1.07,3.04-1.17,4.33-.41,7.97,2.89,8.33,7.06s-2.57,7.67-6.7,8.4c4.38.82,7.14,4.53,6.68,8.62s-4.05,7.23-8.3,6.85c-1.04-.09-2-.61-3.01-1.18-5.38,10.29-15.8,16.7-27.3,16.73-11.53.03-22.03-6.32-27.45-16.68-.99.47-2,1.05-3.08,1.14-4.33.37-7.94-2.92-8.3-7.08s2.56-7.65,6.69-8.39c-4.36-.81-7.11-4.52-6.67-8.57s4.04-7.27,8.28-6.89c1.07.1,2.1.67,3.08,1.15C40.1,6.67,49.96.96,61.16,0h2.16Z"/>
  <path d="M123,107.12v.47c-2.24,7.57-8.79,14.13-17.5,14.41H18.73c-8.6-1.17-15.5-6.4-17.91-14.76,2.75-4.48,6.13-8.47,10.13-12.02,5.99-5.38,12.76-9.4,20.3-12.27,7.01-2.67,14.16-4.24,21.66-4.88l-6.29,38.94h31.01l-6.29-38.94c21.08,1.83,40.7,11.28,51.66,29.06Z"/>
</svg>